# xmcd CD database file
#
# Track frame offsets:
#	150
#	15162
#	38957
#	56165
#	78927
#	95562
#	118077
#	134120
#	153520
#	175417
#	202930
#	224687
#
# Disc length: 3556 seconds
#
# Revision: 0
# Processed by: cddbd v1.5.2PL0 Copyright (c) Steve Scherf et al.
# Submitted via: CDex 1.70beta2
#
DISCID=aa0de20c
DTITLE=宇崎竜童 - Smoke and Bourbon
DYEAR=1900
DGENRE=Blues
TTITLE0=スモーキング・ブギ
TTITLE1=ベース・キャンプ・ブルース
TTITLE2=悲しきティーンエイジ・アイドル
TTITLE3=横浜ホンキートンク・ブルース
TTITLE4=サクセス
TTITLE5=欲望の街
TTITLE6=Rock'n Roll Widow
TTITLE7=Unbelivable
TTITLE8=This Is My Life
TTITLE9=Kut's
TTITLE10=Smoke and Bourbon
TTITLE11=12月
EXTD=
EXTT0=
EXTT1=
EXTT2=
EXTT3=
EXTT4=
EXTT5=
EXTT6=
EXTT7=
EXTT8=
EXTT9=
EXTT10=
EXTT11=
PLAYORDER=
